<mxfile host="app.diagrams.net" agent="Mozilla/5.0 (Windows NT 10.0; Win64; x64) AppleWebKit/537.36 (KHTML, like Gecko) Chrome/128.0.0.0 Safari/537.36 Edg/128.0.0.0" version="24.7.12">
  <diagram name="Page-1" id="nPt1lMtZqKhaVCtS0rXL">
    <mxGraphModel dx="1106" dy="611" grid="1" gridSize="10" guides="1" tooltips="1" connect="1" arrows="1" fold="1" page="1" pageScale="1" pageWidth="850" pageHeight="1100" math="0" shadow="0">
      <root>
        <mxCell id="0" />
        <mxCell id="1" parent="0" />
        <mxCell id="_oaaw6EWjtuR1gMyezTy-8" value=":Admin" style="shape=umlLifeline;perimeter=lifelinePerimeter;whiteSpace=wrap;html=1;container=1;dropTarget=0;collapsible=0;recursiveResize=0;outlineConnect=0;portConstraint=eastwest;newEdgeStyle={&quot;curved&quot;:0,&quot;rounded&quot;:0};" vertex="1" parent="1">
          <mxGeometry x="50" y="235" width="100" height="725" as="geometry" />
        </mxCell>
        <mxCell id="_oaaw6EWjtuR1gMyezTy-15" value="" style="html=1;points=[[0,0,0,0,5],[0,1,0,0,-5],[1,0,0,0,5],[1,1,0,0,-5]];perimeter=orthogonalPerimeter;outlineConnect=0;targetShapes=umlLifeline;portConstraint=eastwest;newEdgeStyle={&quot;curved&quot;:0,&quot;rounded&quot;:0};" vertex="1" parent="_oaaw6EWjtuR1gMyezTy-8">
          <mxGeometry x="42.5" y="65" width="15" height="125" as="geometry" />
        </mxCell>
        <mxCell id="_oaaw6EWjtuR1gMyezTy-9" value=":Student" style="shape=umlLifeline;perimeter=lifelinePerimeter;whiteSpace=wrap;html=1;container=1;dropTarget=0;collapsible=0;recursiveResize=0;outlineConnect=0;portConstraint=eastwest;newEdgeStyle={&quot;curved&quot;:0,&quot;rounded&quot;:0};" vertex="1" parent="1">
          <mxGeometry x="220" y="230" width="100" height="730" as="geometry" />
        </mxCell>
        <mxCell id="_oaaw6EWjtuR1gMyezTy-39" value="" style="html=1;points=[[0,0,0,0,5],[0,1,0,0,-5],[1,0,0,0,5],[1,1,0,0,-5]];perimeter=orthogonalPerimeter;outlineConnect=0;targetShapes=umlLifeline;portConstraint=eastwest;newEdgeStyle={&quot;curved&quot;:0,&quot;rounded&quot;:0};" vertex="1" parent="_oaaw6EWjtuR1gMyezTy-9">
          <mxGeometry x="40" y="250" width="20" height="80" as="geometry" />
        </mxCell>
        <mxCell id="_oaaw6EWjtuR1gMyezTy-53" value="" style="html=1;points=[[0,0,0,0,5],[0,1,0,0,-5],[1,0,0,0,5],[1,1,0,0,-5]];perimeter=orthogonalPerimeter;outlineConnect=0;targetShapes=umlLifeline;portConstraint=eastwest;newEdgeStyle={&quot;curved&quot;:0,&quot;rounded&quot;:0};" vertex="1" parent="_oaaw6EWjtuR1gMyezTy-9">
          <mxGeometry x="45" y="480" width="10" height="100" as="geometry" />
        </mxCell>
        <mxCell id="_oaaw6EWjtuR1gMyezTy-11" value=":Teacher" style="shape=umlLifeline;perimeter=lifelinePerimeter;whiteSpace=wrap;html=1;container=1;dropTarget=0;collapsible=0;recursiveResize=0;outlineConnect=0;portConstraint=eastwest;newEdgeStyle={&quot;curved&quot;:0,&quot;rounded&quot;:0};" vertex="1" parent="1">
          <mxGeometry x="390" y="230" width="100" height="730" as="geometry" />
        </mxCell>
        <mxCell id="_oaaw6EWjtuR1gMyezTy-40" value="" style="html=1;points=[[0,0,0,0,5],[0,1,0,0,-5],[1,0,0,0,5],[1,1,0,0,-5]];perimeter=orthogonalPerimeter;outlineConnect=0;targetShapes=umlLifeline;portConstraint=eastwest;newEdgeStyle={&quot;curved&quot;:0,&quot;rounded&quot;:0};" vertex="1" parent="_oaaw6EWjtuR1gMyezTy-11">
          <mxGeometry x="45" y="270" width="10" height="80" as="geometry" />
        </mxCell>
        <mxCell id="_oaaw6EWjtuR1gMyezTy-44" value="" style="html=1;points=[[0,0,0,0,5],[0,1,0,0,-5],[1,0,0,0,5],[1,1,0,0,-5]];perimeter=orthogonalPerimeter;outlineConnect=0;targetShapes=umlLifeline;portConstraint=eastwest;newEdgeStyle={&quot;curved&quot;:0,&quot;rounded&quot;:0};" vertex="1" parent="_oaaw6EWjtuR1gMyezTy-11">
          <mxGeometry x="45" y="430" width="10" height="70" as="geometry" />
        </mxCell>
        <mxCell id="_oaaw6EWjtuR1gMyezTy-58" value="" style="html=1;points=[[0,0,0,0,5],[0,1,0,0,-5],[1,0,0,0,5],[1,1,0,0,-5]];perimeter=orthogonalPerimeter;outlineConnect=0;targetShapes=umlLifeline;portConstraint=eastwest;newEdgeStyle={&quot;curved&quot;:0,&quot;rounded&quot;:0};" vertex="1" parent="_oaaw6EWjtuR1gMyezTy-11">
          <mxGeometry x="45" y="550" width="10" height="80" as="geometry" />
        </mxCell>
        <mxCell id="_oaaw6EWjtuR1gMyezTy-13" value=":Clarification" style="shape=umlLifeline;perimeter=lifelinePerimeter;whiteSpace=wrap;html=1;container=1;dropTarget=0;collapsible=0;recursiveResize=0;outlineConnect=0;portConstraint=eastwest;newEdgeStyle={&quot;curved&quot;:0,&quot;rounded&quot;:0};" vertex="1" parent="1">
          <mxGeometry x="710" y="230" width="100" height="730" as="geometry" />
        </mxCell>
        <mxCell id="_oaaw6EWjtuR1gMyezTy-60" value="" style="html=1;points=[[0,0,0,0,5],[0,1,0,0,-5],[1,0,0,0,5],[1,1,0,0,-5]];perimeter=orthogonalPerimeter;outlineConnect=0;targetShapes=umlLifeline;portConstraint=eastwest;newEdgeStyle={&quot;curved&quot;:0,&quot;rounded&quot;:0};" vertex="1" parent="_oaaw6EWjtuR1gMyezTy-13">
          <mxGeometry x="45" y="610" width="10" height="90" as="geometry" />
        </mxCell>
        <mxCell id="_oaaw6EWjtuR1gMyezTy-14" value=":Exam" style="shape=umlLifeline;perimeter=lifelinePerimeter;whiteSpace=wrap;html=1;container=1;dropTarget=0;collapsible=0;recursiveResize=0;outlineConnect=0;portConstraint=eastwest;newEdgeStyle={&quot;curved&quot;:0,&quot;rounded&quot;:0};" vertex="1" parent="1">
          <mxGeometry x="550" y="230" width="100" height="730" as="geometry" />
        </mxCell>
        <mxCell id="_oaaw6EWjtuR1gMyezTy-47" value="" style="html=1;points=[[0,0,0,0,5],[0,1,0,0,-5],[1,0,0,0,5],[1,1,0,0,-5]];perimeter=orthogonalPerimeter;outlineConnect=0;targetShapes=umlLifeline;portConstraint=eastwest;newEdgeStyle={&quot;curved&quot;:0,&quot;rounded&quot;:0};" vertex="1" parent="_oaaw6EWjtuR1gMyezTy-14">
          <mxGeometry x="45" y="430" width="15" height="120" as="geometry" />
        </mxCell>
        <mxCell id="_oaaw6EWjtuR1gMyezTy-19" value="" style="endArrow=classic;html=1;rounded=0;" edge="1" parent="1" source="_oaaw6EWjtuR1gMyezTy-15" target="_oaaw6EWjtuR1gMyezTy-9">
          <mxGeometry width="50" height="50" relative="1" as="geometry">
            <mxPoint x="150" y="360" as="sourcePoint" />
            <mxPoint x="210" y="360" as="targetPoint" />
            <Array as="points">
              <mxPoint x="160" y="330" />
            </Array>
          </mxGeometry>
        </mxCell>
        <mxCell id="_oaaw6EWjtuR1gMyezTy-17" value="" style="html=1;points=[[0,0,0,0,5],[0,1,0,0,-5],[1,0,0,0,5],[1,1,0,0,-5]];perimeter=orthogonalPerimeter;outlineConnect=0;targetShapes=umlLifeline;portConstraint=eastwest;newEdgeStyle={&quot;curved&quot;:0,&quot;rounded&quot;:0};" vertex="1" parent="1">
          <mxGeometry x="265" y="300" width="10" height="120" as="geometry" />
        </mxCell>
        <mxCell id="_oaaw6EWjtuR1gMyezTy-22" value="" style="html=1;verticalAlign=bottom;endArrow=open;dashed=1;endSize=8;curved=0;rounded=0;" edge="1" parent="1" source="_oaaw6EWjtuR1gMyezTy-9" target="_oaaw6EWjtuR1gMyezTy-17">
          <mxGeometry relative="1" as="geometry">
            <mxPoint x="270" y="385" as="sourcePoint" />
            <mxPoint x="100" y="385" as="targetPoint" />
          </mxGeometry>
        </mxCell>
        <mxCell id="_oaaw6EWjtuR1gMyezTy-29" value="Get admission slip()" style="html=1;verticalAlign=bottom;endArrow=open;dashed=1;endSize=8;curved=0;rounded=0;" edge="1" parent="1" target="_oaaw6EWjtuR1gMyezTy-8">
          <mxGeometry relative="1" as="geometry">
            <mxPoint x="265" y="360" as="sourcePoint" />
            <mxPoint x="185" y="360" as="targetPoint" />
          </mxGeometry>
        </mxCell>
        <mxCell id="_oaaw6EWjtuR1gMyezTy-31" value="Gives admission()" style="text;html=1;align=center;verticalAlign=middle;resizable=0;points=[];autosize=1;strokeColor=none;fillColor=none;" vertex="1" parent="1">
          <mxGeometry x="130" y="308" width="120" height="30" as="geometry" />
        </mxCell>
        <mxCell id="_oaaw6EWjtuR1gMyezTy-33" value="" style="endArrow=classic;html=1;rounded=0;" edge="1" parent="1">
          <mxGeometry width="50" height="50" relative="1" as="geometry">
            <mxPoint x="105.5" y="384.5" as="sourcePoint" />
            <mxPoint x="265" y="384.5" as="targetPoint" />
          </mxGeometry>
        </mxCell>
        <mxCell id="_oaaw6EWjtuR1gMyezTy-34" value="Ask to pay fees()" style="text;html=1;align=center;verticalAlign=middle;resizable=0;points=[];autosize=1;strokeColor=none;fillColor=none;" vertex="1" parent="1">
          <mxGeometry x="125" y="358" width="110" height="30" as="geometry" />
        </mxCell>
        <mxCell id="_oaaw6EWjtuR1gMyezTy-37" value="Pays fees()" style="html=1;verticalAlign=bottom;endArrow=open;dashed=1;endSize=8;curved=0;rounded=0;" edge="1" parent="1">
          <mxGeometry relative="1" as="geometry">
            <mxPoint x="275" y="410" as="sourcePoint" />
            <mxPoint x="109.5" y="410" as="targetPoint" />
          </mxGeometry>
        </mxCell>
        <mxCell id="_oaaw6EWjtuR1gMyezTy-41" value="" style="endArrow=classic;html=1;rounded=0;" edge="1" parent="1" source="_oaaw6EWjtuR1gMyezTy-39" target="_oaaw6EWjtuR1gMyezTy-40">
          <mxGeometry width="50" height="50" relative="1" as="geometry">
            <mxPoint x="290" y="535" as="sourcePoint" />
            <mxPoint x="430" y="520" as="targetPoint" />
          </mxGeometry>
        </mxCell>
        <mxCell id="_oaaw6EWjtuR1gMyezTy-42" value="Wishes()" style="text;html=1;align=center;verticalAlign=middle;resizable=0;points=[];autosize=1;strokeColor=none;fillColor=none;" vertex="1" parent="1">
          <mxGeometry x="315" y="498" width="70" height="30" as="geometry" />
        </mxCell>
        <mxCell id="_oaaw6EWjtuR1gMyezTy-43" value="Wishes back()" style="html=1;verticalAlign=bottom;endArrow=open;dashed=1;endSize=8;curved=0;rounded=0;" edge="1" parent="1" source="_oaaw6EWjtuR1gMyezTy-40" target="_oaaw6EWjtuR1gMyezTy-39">
          <mxGeometry relative="1" as="geometry">
            <mxPoint x="430" y="550" as="sourcePoint" />
            <mxPoint x="290" y="540" as="targetPoint" />
          </mxGeometry>
        </mxCell>
        <mxCell id="_oaaw6EWjtuR1gMyezTy-51" value="" style="endArrow=classic;html=1;rounded=0;" edge="1" parent="1" target="_oaaw6EWjtuR1gMyezTy-47">
          <mxGeometry width="50" height="50" relative="1" as="geometry">
            <mxPoint x="450" y="690" as="sourcePoint" />
            <mxPoint x="590" y="690" as="targetPoint" />
          </mxGeometry>
        </mxCell>
        <mxCell id="_oaaw6EWjtuR1gMyezTy-52" value="announces exam()" style="text;html=1;align=center;verticalAlign=middle;resizable=0;points=[];autosize=1;strokeColor=none;fillColor=none;" vertex="1" parent="1">
          <mxGeometry x="460" y="668" width="120" height="30" as="geometry" />
        </mxCell>
        <mxCell id="_oaaw6EWjtuR1gMyezTy-54" value="" style="endArrow=classic;html=1;rounded=0;" edge="1" parent="1" target="_oaaw6EWjtuR1gMyezTy-14">
          <mxGeometry width="50" height="50" relative="1" as="geometry">
            <mxPoint x="280" y="740" as="sourcePoint" />
            <mxPoint x="320" y="700" as="targetPoint" />
          </mxGeometry>
        </mxCell>
        <mxCell id="_oaaw6EWjtuR1gMyezTy-56" value="Writes exam()" style="text;html=1;align=center;verticalAlign=middle;resizable=0;points=[];autosize=1;strokeColor=none;fillColor=none;" vertex="1" parent="1">
          <mxGeometry x="310" y="708" width="100" height="30" as="geometry" />
        </mxCell>
        <mxCell id="_oaaw6EWjtuR1gMyezTy-59" value="gives result()" style="html=1;verticalAlign=bottom;endArrow=open;dashed=1;endSize=8;curved=0;rounded=0;" edge="1" parent="1" target="_oaaw6EWjtuR1gMyezTy-9">
          <mxGeometry relative="1" as="geometry">
            <mxPoint x="430" y="800" as="sourcePoint" />
            <mxPoint x="290" y="800" as="targetPoint" />
          </mxGeometry>
        </mxCell>
        <mxCell id="_oaaw6EWjtuR1gMyezTy-61" value="" style="endArrow=classic;html=1;rounded=0;" edge="1" parent="1" target="_oaaw6EWjtuR1gMyezTy-13">
          <mxGeometry width="50" height="50" relative="1" as="geometry">
            <mxPoint x="445" y="850" as="sourcePoint" />
            <mxPoint x="490" y="850" as="targetPoint" />
          </mxGeometry>
        </mxCell>
        <mxCell id="_oaaw6EWjtuR1gMyezTy-63" value="Tells clarification date()" style="text;html=1;align=center;verticalAlign=middle;resizable=0;points=[];autosize=1;strokeColor=none;fillColor=none;" vertex="1" parent="1">
          <mxGeometry x="475" y="828" width="150" height="30" as="geometry" />
        </mxCell>
      </root>
    </mxGraphModel>
  </diagram>
</mxfile>
